<svg xmlns="http://www.w3.org/2000/svg" width="117" height="48" viewBox="0 0 117 48" fill="none"><path d="M34.4849 15.4887C29.7683 15.4887 25.4844 18.1752 21.7643 23.4587V15.9218H17.9562V18.2484C15.8843 16.2876 13.4619 15.4887 10.947 15.4887C4.75977 15.4887 0 20.2973 0 26.6216C0 32.9459 4.58674 37.7111 10.5145 37.7111C13.4008 37.7111 15.856 36.5672 17.9562 34.3332V37.2333H21.7643V32.6845L18.4753 28.4823C16.1826 32.0782 13.629 33.9837 10.7307 33.9837C6.92263 33.9837 3.80812 30.7775 3.80812 26.6201C3.80812 22.4626 6.92412 19.2131 10.947 19.2131C15.5338 19.2131 18.1725 23.4587 21.5913 28.1806C26.0915 34.375 29.6401 37.7111 34.6146 37.7111C38.9418 37.7111 42.923 35.1993 44.3937 31.1703H39.8935C39.1149 32.816 37.0803 33.9867 34.7011 33.9867C31.3137 33.9867 28.499 31.796 24.758 26.0108C27.7099 21.5233 30.9199 19.2146 34.4849 19.2146C38.0498 19.2146 40.6721 21.5532 41.2777 24.6727H28.6004V28.5286H45.0426C45.1291 27.9656 45.1723 27.3593 45.1723 26.6231C45.1723 20.2987 40.7586 15.4902 34.4849 15.4902V15.4887Z" fill="#0027BD"></path><path d="M65.3794 18.7039C63.6461 16.5773 61.0835 15.4902 58.1972 15.4902C51.9667 15.4902 46.9906 20.472 46.9906 26.6231C46.9906 32.7741 51.9667 37.7126 58.0674 37.7126C61.0954 37.7126 63.6521 36.6255 65.3794 34.5019V35.8071C65.3794 40.7456 62.6094 43.7771 58.5 43.7771C55.9046 43.7771 54.043 42.5645 53.0914 40.7008H48.5046C49.9754 44.9464 53.6105 47.5015 58.5 47.5015C64.9468 47.5015 69.1875 43.0394 69.1875 35.8056V15.9218H65.3794V18.7039ZM58.0674 33.9867C53.9133 33.9867 50.7987 30.7805 50.7987 26.6231C50.7987 22.4656 53.9147 19.2161 58.0674 19.2161C62.2201 19.2161 65.3794 22.4656 65.3794 26.6231C65.3794 30.7805 62.2201 33.9867 58.0674 33.9867Z" fill="#0027BD"></path><path d="M82.0378 15.4887C75.8506 15.4887 70.9178 20.3406 70.9178 26.6649C70.9178 32.9892 75.5045 37.7111 81.9946 37.7111C86.7111 37.7111 90.6922 35.1993 92.163 31.1703H87.6627C86.8841 32.816 84.7198 33.9867 82.0378 33.9867C77.7106 33.9867 74.7259 30.9104 74.7259 26.6664C74.7259 22.4223 77.8419 19.2161 82.0378 19.2161C85.5491 19.2161 88.3683 21.5248 89.0291 24.6742H78.0134V28.5301H92.8118C92.8983 27.9671 92.9416 27.3608 92.9416 26.6245C92.9416 20.3002 88.2251 15.4917 82.0378 15.4917V15.4887Z" fill="#0027BD"></path><path d="M113.192 15.9218V18.8248C111.487 16.761 108.581 15.4887 105.577 15.4887C99.6927 15.4887 94.8031 20.2973 94.8031 26.6216C94.8031 32.9459 99.7359 37.7111 105.577 37.7111C108.581 37.7111 111.487 36.4373 113.192 34.375V37.2348H117V15.9218H113.192ZM105.88 33.9867C101.726 33.9867 98.6113 30.7805 98.6113 26.6231C98.6113 22.4656 101.727 19.2161 105.88 19.2161C110.033 19.2161 113.192 22.4656 113.192 26.6231C113.192 30.7805 110.033 33.9867 105.88 33.9867Z" fill="#0027BD"></path><path d="M2.21357 0.638881V8.05931H0.847242V0.638881H2.21357Z" fill="#0027BD"></path><path d="M8.66186 5.37726V0.638881H9.97449V8.05931H8.78865C7.97422 6.24639 6.64966 4.31699 5.08345 2.63249V8.05931H3.78127V0.638881H4.96711C6.30062 1.96348 7.65651 3.69128 8.66186 5.37726Z" fill="#0027BD"></path><path d="M11.2871 5.3459L12.5789 5.48329C12.4312 6.43753 13.0979 7.00948 14.2301 7.00948C15.1937 7.00948 15.8291 6.60628 15.8291 5.94921C15.8291 4.25277 11.3826 5.64158 11.3826 2.75794C11.3826 1.29446 12.5475 0.5 14.2301 0.5C16.1259 0.5 17.2581 1.59163 16.9717 3.23431L15.6904 3.10738C15.8381 2.2278 15.2772 1.68721 14.2286 1.68721C13.3292 1.68721 12.7564 2.10086 12.7564 2.70417C12.7564 4.28413 17.267 3.05362 17.267 5.91636C17.267 7.35743 16.0916 8.1952 14.2599 8.1952C12.1851 8.1952 11.0514 7.09311 11.2841 5.34441L11.2871 5.3459Z" fill="#0027BD"></path><path d="M17.6504 1.81564V0.638881H23.9928V1.81564H21.5047V8.05931H20.1384V1.81564H17.6504Z" fill="#0027BD"></path><path d="M26.3331 0.638881V8.05931H24.9668V0.638881H26.3331Z" fill="#0027BD"></path><path d="M27.3072 1.81564V0.638881H33.6495V1.81564H31.1615V8.05931H29.7952V1.81564H27.3072Z" fill="#0027BD"></path><path d="M34.5699 4.83667V0.628428L35.9675 0.638881V4.83667C35.9675 6.08809 36.688 6.88255 37.7888 6.88255C38.8896 6.88255 39.6205 6.07614 39.6205 4.82622V0.628428H41.0182V4.82622C41.0182 6.90346 39.7786 8.19669 37.7888 8.19669C35.799 8.19669 34.5699 6.91391 34.5699 4.83667Z" fill="#0027BD"></path><path d="M41.94 1.81564V0.638881H48.2824V1.81564H45.7943V8.05931H44.428V1.81564H41.94Z" fill="#0027BD"></path><path d="M48.6523 4.33939C48.6523 2.08145 50.1663 0.501493 52.3575 0.501493C54.5487 0.501493 56.0627 2.08145 56.0627 4.33939C56.0627 6.59732 54.5382 8.19819 52.3575 8.19819C50.1767 8.19819 48.6523 6.61823 48.6523 4.33939ZM54.6233 4.33939C54.6233 2.84455 53.691 1.81713 52.3575 1.81713C51.024 1.81713 50.0813 2.84604 50.0813 4.33939C50.0813 5.83273 51.0135 6.88404 52.3575 6.88404C53.7015 6.88404 54.6233 5.84468 54.6233 4.33939Z" fill="#0027BD"></path></svg>