<svg xmlns="http://www.w3.org/2000/svg" id="Camada_2" data-name="Camada 2" viewBox="0 0 1227.53 225.55"><defs><style>      .cls-1 {        fill: #00a1e4;        fill-rule: evenodd;        stroke-width: 0px;      }    </style></defs><g id="Layer_1" data-name="Layer 1"><g><path class="cls-1" d="M81.41,38.45c0-23.02,11.23-37.09,29.41-37.09s29.45,14.07,29.45,37.09v116.55c0,49.34-36.34,70.55-71.66,70.55C27.38,225.55,0,198.37,0,162.48c0-22.4,8.45-36.17,28.18-36.17,12.78,0,24.54,8.97,24.54,27.53,0,14.31,6.17,19.72,14.11,19.72,9.19,0,14.59-6.89,14.59-31.98V38.45h0Z"></path><path class="cls-1" d="M279.77,37.09c0-23.02,11.26-37.09,29.43-37.09s29.41,14.07,29.41,37.09v98.62c0,65.14-37.87,88.48-88.59,88.48s-88.52-23.34-88.52-88.48V37.09c0-23.02,11.24-37.09,29.45-37.09s29.41,14.07,29.41,37.09v98.05c0,22.41,8.97,37.06,29.65,37.06s29.75-14.65,29.75-37.06V37.09h0Z"></path><path class="cls-1" d="M434.09,143.29l-39.16-13.13c-29.45-9.88-45.55-30.22-45.55-60.4C349.38,33.88,369.85.11,421.04.11c34.03,0,78.05,9.56,78.05,45.74,0,16.73-10.99,27.2-25.59,27.2-19.7,0-19.98-26.29-49.12-26.29-10.04,0-19.22,4.49-19.22,14.32s7.18,13.76,19.72,17.65l30.45,9.56c30.95,9.86,52.2,26.61,52.2,64,0,51.07-37.57,73.19-76.54,73.19-61.93,0-80.87-32.28-80.87-51.72,0-16.71,10.51-28.09,24.83-28.09,21.01,0,23.56,31.39,52.46,31.39,12.04,0,22.81-4.76,22.81-17.93,0-8.66-5.38-12.26-16.12-15.86h0Z"></path><path class="cls-1" d="M599.65,143.29l-39.15-13.13c-29.41-9.88-45.53-30.22-45.53-60.4C514.98,33.88,535.44.11,586.62.11c34.05,0,78.07,9.56,78.07,45.74,0,16.73-11,27.2-25.59,27.2-19.68,0-19.96-26.29-49.13-26.29-10.01,0-19.2,4.49-19.2,14.32s7.15,13.76,19.7,17.65l30.47,9.56c30.96,9.86,52.22,26.61,52.22,64,0,51.07-37.61,73.19-76.53,73.19-61.94,0-80.89-32.28-80.89-51.72,0-16.71,10.49-28.09,24.84-28.09,20.95,0,23.54,31.39,52.47,31.39,12.02,0,22.75-4.76,22.75-17.93,0-8.66-5.35-12.26-16.12-15.86h0Z"></path><path class="cls-1" d="M736.62,191.41l-4.12,15.84c-3.06,12.28-14.61,17.06-23.79,17.06-13.31,0-26.88-11.65-26.88-27.79,0-9.88,4.86-25.74,9.2-40.07l39.16-127.35c5.65-17.91,13.33-27.81,28.18-27.81h18.42c14.83,0,22.53,9.9,28.16,27.81l39.14,127.35c4.4,14.33,9.23,30.19,9.23,40.07,0,16.14-13.61,27.79-26.92,27.79-9.18,0-20.68-4.78-23.78-17.06l-4.1-15.84h-61.91ZM767.83,69.76h-.5l-19.97,78.6h40.46l-19.98-78.6h0Z"></path><path class="cls-1" d="M872.78,46.15c0-28.7,10.74-40.95,36.09-40.95h65.25c45.04,0,65.29,28.09,65.29,60.99,0,28.1-14.6,46.33-37.37,51.4v.59c18.67,1.5,31.48,8.99,34.05,31.7l2.03,17.93c1.29,10.17,2.57,21.22,2.57,30.21,0,16.41-13.83,26.29-26.39,26.29-17.13,0-30.43-8.38-32.5-29.6l-2.83-28.4c-1.75-17.32-12-22.41-25.83-22.41h-23.04v44.53c0,23.01-10.23,35.88-28.66,35.88s-28.67-12.87-28.67-35.88V46.15h0ZM959.54,99.04c17.15,0,24.08-6.28,24.08-20.92s-6.93-20.92-24.08-20.92h-29.43v41.84h29.43Z"></path><path class="cls-1" d="M1110.82,191.41l-4.1,15.84c-3.08,12.28-14.6,17.06-23.8,17.06-13.31,0-26.88-11.65-26.88-27.79,0-9.88,4.88-25.74,9.23-40.07l39.12-127.35c5.65-17.91,13.33-27.81,28.18-27.81h18.41c14.86,0,22.54,9.9,28.17,27.81l39.18,127.35c4.34,14.33,9.19,30.19,9.19,40.07,0,16.14-13.55,27.79-26.88,27.79-9.21,0-20.72-4.78-23.8-17.06l-4.08-15.84h-61.95ZM1142.08,69.76h-.52l-20,78.6h40.46l-19.94-78.6h0Z"></path></g></g></svg>